Coordinates
version=1
nRows=17
nColumns=40
inDegrees=yes

Units are S.I. units (second, meters, Newtons, ...)
Angles are in degrees.

endheader
time	pelvis_tilt	pelvis_list	pelvis_rotation	pelvis_tx	pelvis_ty	pelvis_tz	hip_flexion_r	hip_adduction_r	hip_rotation_r	knee_angle_r	knee_angle_r_beta	ankle_angle_r	subtalar_angle_r	mtp_angle_r	hip_flexion_l	hip_adduction_l	hip_rotation_l	knee_angle_l	knee_angle_l_beta	ankle_angle_l	subtalar_angle_l	mtp_angle_l	lumbar_extension	lumbar_bending	lumbar_rotation	arm_flex_r	arm_add_r	arm_rot_r	elbow_flex_r	pro_sup_r	wrist_flex_r	wrist_dev_r	arm_flex_l	arm_add_l	arm_rot_l	elbow_flex_l	pro_sup_l	wrist_flex_l	wrist_dev_l
     39.05250000	     -5.28998882	     -5.04211085	     -9.16816163	      0.93506642	      0.92482166	      0.49437269	     20.43010786	      2.92498560	     -6.24987498	     20.61911015	     20.61911015	      6.39919582	     -0.57097393	     -1.60616884	     -0.69775725	     -7.80252722	    -16.28500157	     21.36649673	     21.36649673	     19.59465244	     -8.74105558	     -0.53266379	     -9.85987643	      8.17245219	     -0.11560521	    -10.26699655	    -12.59944070	    -18.63854652	     34.36487941	     45.97682263	      0.00000000	      0.00000000	     35.31756986	    -20.97160745	     -8.95792125	     67.25537464	     48.08075678	      0.00000000	      0.00000000
     39.07142857	     -5.28428928	     -5.15792572	     -8.73928875	      0.93662450	      0.92537070	      0.49950127	     19.85878163	      3.22972637	     -6.65014858	     20.64084865	     20.64084865	      6.88210638	     -0.59267911	     -1.53030160	     -0.40668871	     -8.55178878	    -15.92880766	     22.79785771	     22.79785771	     19.16388266	     -8.97493014	     -0.96518078	     -9.73965585	      8.05730001	     -0.12219309	     -9.60539116	    -12.90712220	    -18.47869010	     35.03281392	     45.94651825	      0.00000000	      0.00000000	     34.32775952	    -20.48548382	     -9.01622805	     66.62309179	     48.06293229	      0.00000000	      0.00000000
     39.09035714	     -5.25317604	     -5.27452736	     -8.30458779	      0.93810864	      0.92582969	      0.50457371	     19.26904243	      3.53183790	     -7.05953515	     20.66616945	     20.66616945	      7.42504968	     -0.59392329	     -1.45225414	      0.11180840	     -9.35851567	    -15.45485815	     24.65691820	     24.65691820	     18.53405937	     -9.44530400	     -1.62571426	     -9.64086057	      7.95233977	     -0.09623270	     -8.91754763	    -13.23982949	    -18.26360522	     35.82454971	     45.90838248	      0.00000000	      0.00000000	     33.20046693	    -19.93665616	     -9.17296367	     65.89379055	     48.04912872	      0.00000000	      0.00000000
     39.10928571	     -5.15005621	     -5.40121621	     -7.88450141	      0.93954074	      0.92620651	      0.50959842	     18.62602002	      3.84415285	     -7.44710271	     20.73243974	     20.73243974	      8.00281110	     -0.59320439	     -1.41223136	      0.83201991	    -10.20454913	    -14.79394673	     26.99761648	     26.99761648	     17.67952423	    -10.24828683	     -2.45720728	     -9.62324942	      7.85646479	     -0.03151552	     -8.13935017	    -13.60736723	    -18.02808346	     36.66228949	     45.86823272	      0.00000000	      0.00000000	     31.93460025	    -19.32062694	     -9.33245209	     65.08188004	     48.03326411	      0.00000000	      0.00000000
     39.12821429	     -5.05385665	     -5.47623667	     -7.46914980	      0.94083941	      0.92634267	      0.51441744	     18.11166535	      4.07989890	     -7.80730487	     21.02810507	     21.02810507	      9.00600003	     -0.47826427	     -0.33350536	      1.66118008	    -10.92791376	    -13.84168938	     29.25164007	     29.25164007	     14.72574893	    -12.49157048	     -7.45614729	     -9.53313774	      7.73785431	     -0.07354352	     -8.01601622	    -14.48590315	    -15.27319168	     39.39000109	     45.62871715	      0.00000000	      0.00000000	     30.56002315	    -18.26615218	    -10.70206997	     63.75549372	     48.04767121	      0.00000000	      0.00000000
     39.14714286	     -4.82557875	     -5.62499128	     -7.01415682	      0.94201946	      0.92650833	      0.51913840	     17.36741018	      4.40898303	     -8.13800174	     21.11496904	     21.11496904	      9.58273782	     -0.58869062	     -0.49608217	      2.87275852	    -11.83242179	    -12.76105750	     32.60723022	     32.60723022	     13.54409517	    -13.64929639	     -7.93890526	     -9.64795729	      7.64728652	      0.02209079	     -6.91537614	    -14.84520848	    -15.23865965	     39.92612930	     45.61642498	      0.00000000	      0.00000000	     29.02575904	    -17.65491544	    -10.49311051	     62.83926240	     48.00057524	      0.00000000	      0.00000000
     39.16607143	     -4.67478198	     -5.71147939	     -6.51334108	      0.94297896	      0.92632716	      0.52353863	     16.79343774	      4.66959056	     -8.42244849	     21.30951757	     21.30951757	     10.16453888	     -0.85198131	     -0.63399614	      4.49691520	    -12.61390021	    -11.35436636	     36.36486488	     36.36486488	     11.92390716	    -15.17050985	     -8.50785056	     -9.58120276	      7.56823867	     -0.06678601	     -5.71353570	    -15.19743926	    -15.14353513	     40.63523763	     45.59523423	      0.00000000	      0.00000000	     27.29325719	    -17.06595552	    -10.33875135	     61.52746695	     47.94914410	      0.00000000	      0.00000000
     39.18500000	     -4.28268228	     -5.87489432	     -6.02667509	      0.94382444	      0.92621892	      0.52776844	     16.01205656	      4.99123295	     -8.64605632	     21.60162178	     21.60162178	     10.82824745	     -1.14316076	     -0.80947687	      6.05303862	    -13.41566202	     -9.88851662	     40.37472743	     40.37472743	     10.15056759	    -16.50661884	     -8.78264558	     -9.85653384	      7.50509187	      0.03366090	     -4.33529811	    -15.59245931	    -15.07133403	     41.34131577	     45.57572623	      0.00000000	      0.00000000	     25.61363355	    -16.32934787	    -10.11282504	     60.23962134	     47.89472257	      0.00000000	      0.00000000
     39.20392857	     -4.12589691	     -5.89234729	     -5.46717082	      0.94437996	      0.92557321	      0.53157747	     15.60024255	      5.19081349	     -8.71070656	     22.02594582	     22.02594582	     11.54127047	     -1.81139392	     -0.87180187	      8.15862750	    -13.92257646	     -8.07553326	     44.61777352	     44.61777352	      8.34144648	    -17.78460614	     -8.36950172	     -9.70620083	      7.40599346	     -0.35069993	     -2.80901265	    -15.87806212	    -14.69624923	     42.35168499	     45.53278634	      0.00000000	      0.00000000	     23.78768615	    -15.84135120	     -9.90292356	     57.82765531	     47.81978226	      0.00000000	      0.00000000
     39.22285714	     -3.79059102	     -5.98858728	     -4.88556127	      0.94475074	      0.92502461	      0.53511389	     15.04047444	      5.46586533	     -8.75665619	     22.51049813	     22.51049813	     12.28397420	     -2.61536213	     -0.72724034	     10.28922413	    -14.34774994	     -6.14380806	     49.08494230	     49.08494230	      7.58590027	    -18.23721666	     -4.98332529	     -9.81904854	      7.35970546	     -0.48010906	     -1.26090268	    -16.32667548	    -13.81859640	     43.36649117	     45.47253270	      0.00000000	      0.00000000	     22.43909958	    -15.13447705	     -9.42952674	     54.51218588	     47.70762923	      0.00000000	      0.00000000
     39.24178571	     -3.27049676	     -6.22823313	     -4.28221317	      0.94514466	      0.92455289	      0.53838243	     14.19920677	      5.83477674	     -9.02742146	     22.86132581	     22.86132581	     12.95456123	     -2.98124638	     -0.91147163	     12.11246499	    -14.90204277	     -4.45689291	     53.07010066	     53.07010066	      5.92114665	    -18.73086763	     -4.21091000	    -10.26001155	      7.44569989	     -0.12278738	      0.28084996	    -16.73871233	    -13.82709806	     44.03646965	     45.45964868	      0.00000000	      0.00000000	     20.62292542	    -14.00530240	     -8.98514797	     53.26787074	     47.63426943	      0.00000000	      0.00000000
     39.26071429	     -3.10171919	     -6.16334385	     -3.64752843	      0.94500657	      0.92353291	      0.54108515	     13.95451850	      5.92858444	     -8.99218467	     23.47995520	     23.47995520	     13.76820772	     -3.93729477	     -0.62630455	     14.80809260	    -14.55366671	     -2.06299831	     57.57025598	     57.57025598	      7.69765990	    -18.65836881	      5.87032436	    -10.07454896	      7.27903454	     -0.27011114	      1.93128683	    -17.06172599	    -12.97645083	     45.04286277	     45.41319579	      0.00000000	      0.00000000	     19.59519375	    -13.39113093	     -7.58487070	     48.40355308	     47.42360201	      0.00000000	      0.00000000
     39.27964286	     -2.72644510	     -6.23008716	     -3.01154274	      0.94493290	      0.92263731	      0.54369652	     13.45341150	      6.14311544	     -9.05435339	     24.05849752	     24.05849752	     14.51585544	     -4.73373018	     -0.50694391	     16.91993207	    -14.50079465	     -0.33259215	     61.06433670	     61.06433670	      7.90644518	    -18.86858371	     10.53616056	    -10.24285893	      7.22675011	     -0.24249090	      3.69277610	    -17.22390411	    -12.94904988	     46.24634241	     45.40174644	      0.00000000	      0.00000000	     18.02196360	    -12.64833254	     -6.37891537	     45.26480472	     47.24448714	      0.00000000	      0.00000000
     39.29857143	     -2.30873073	     -6.31748227	     -2.37169309	      0.94478567	      0.92177397	      0.54612471	     12.88414705	      6.42438647	     -8.97887750	     24.56515279	     24.56515279	     15.21698398	     -5.71696228	     -0.40070537	     18.84416284	    -14.47010512	      1.09902667	     63.91323544	     63.91323544	      8.21364444	    -19.08214169	     14.28983162	    -10.42798470	      7.17406567	     -0.32080263	      5.67851734	    -17.30450789	    -12.92503342	     47.38145508	     45.38961807	      0.00000000	      0.00000000	     16.46274096	    -11.94418439	     -5.18304538	     41.91660322	     47.06685950	      0.00000000	      0.00000000
     39.31750000	     -1.93400286	     -6.36986173	     -1.71259212	      0.94455151	      0.92083518	      0.54838600	     12.37176172	      6.66044505	     -8.97075534	     25.06455001	     25.06455001	     15.83933894	     -6.67157056	     -0.43233848	     20.61986171	    -14.50196457	      2.11783982	     65.97070686	     65.97070686	      8.26194770	    -19.28596845	     15.62133942	    -10.59334075	      7.08075077	     -0.68643510	      7.87826778	    -17.05878105	    -13.00891036	     48.79736774	     45.35900314	      0.00000000	      0.00000000	     14.28497015	    -11.28758358	     -4.49861617	     39.54846554	     46.94671953	      0.00000000	      0.00000000
     39.33642857	     -1.53083947	     -6.44146869	     -1.08263808	      0.94415897	      0.92003344	      0.55043865	     11.82093909	      6.93836896	     -8.90539919	     25.51942788	     25.51942788	     16.45433394	     -7.63160587	     -0.14985673	     22.35558022	    -14.47424458	      2.99360585	     67.56134457	     67.56134457	      9.80950668	    -19.40553188	     19.81208876	    -10.79499939	      7.00456868	     -0.34964227	      9.76393568	    -17.21263489	    -12.80704231	     50.12155018	     45.33051890	      0.00000000	      0.00000000	     13.08668768	    -10.41782001	     -2.91898286	     35.61739986	     46.71912340	      0.00000000	      0.00000000
     39.35535714	     -1.20304700	     -6.48298184	     -0.42879722	      0.94370136	      0.91919919	      0.55232948	     11.32545625	      7.16637983	     -8.95833851	     25.89950881	     25.89950881	     16.96111069	     -8.46635954	     -0.12423703	     23.93153159	    -14.57820798	      3.43255474	     68.23377743	     68.23377743	     10.66744550	    -19.51581624	     20.54678260	    -10.95223541	      6.88996611	     -0.62937178	     12.05286064	    -16.84862542	    -12.91766157	     51.83692183	     45.28981975	      0.00000000	      0.00000000	     10.85359005	     -9.80348718	     -2.30581529	     33.55146792	     46.60043848	      0.00000000	      0.00000000
